<!DOCTYPE svg PUBLIC "-//W3C//DTD SVG 1.1//EN" "http://www.w3.org/Graphics/SVG/1.1/DTD/svg11.dtd">
<!-- Uploaded to: SVG Repo, www.svgrepo.com, Transformed by: SVG Repo Mixer Tools -->
<svg width="800px" height="800px" viewBox="-2.4 -2.4 28.80 28.80" id="Layer_1" data-name="Layer 1" xmlns="http://www.w3.org/2000/svg" fill="#ffffff" stroke="#ffffff">
<g id="SVGRepo_bgCarrier" stroke-width="0">
<path transform="translate(-2.4, -2.4), scale(0.8999999999999999)" d="M16,28.6695291052262C17.95785532774357,28.483167556979474,20.04844641255173,28.93683636608573,21.79022555729087,28.023527260694472C23.522701434147425,27.115096362332345,24.326490176787072,25.14141075376877,25.584857955401773,23.643669155650723C26.873608551507697,22.109765149055622,28.927780411254368,21.00523500883137,29.3349411472712,19.04361329824135C29.742580300158252,17.079686667661942,27.890329706241335,15.322518465357948,27.726968220248096,13.323396029347702C27.530593071847967,10.920271678129495,29.35536054987222,8.36338600890528,28.28561316546438,6.2025504344388445C27.25949925438058,4.129852267710323,24.681239286663534,3.1901924889075963,22.43590242352368,2.635710911301329C20.31950842409943,2.113071523465251,18.135531853838526,2.730716111801228,16,3.1686421235402413C14.148097628780752,3.5484052341210264,12.331762065020046,4.048494405949284,10.721000539392664,5.03804466755504C9.190710679312664,5.978158214645749,8.356480186934878,7.685611760587705,6.9114150332140944,8.75209534639157C4.924498342265435,10.218474929208577,1.0370264381050758,10.0558357590802,0.6232558105365893,12.490358481388318C0.19602991035063116,15.004048657207054,3.5948381733254786,16.52237028475471,5.26305415718609,18.45063782350272C6.326211812594458,19.67952689741696,8.082194566171042,20.319540728528057,8.697645870589755,21.8234330944002C9.645955079433811,24.14068381663861,7.8268433173169605,27.466326929718978,9.653430558214826,29.17878724069906C11.221385259711585,30.64877462241753,13.860404908950418,28.87318983957098,16,28.6695291052262" fill="#ffffff" strokewidth="0"/>
</g>
<g id="SVGRepo_tracerCarrier" stroke-linecap="round" stroke-linejoin="round"/>
<g id="SVGRepo_iconCarrier">
<defs>
<style>.cls-1{fill:none;stroke:#7ed0ec;stroke-miterlimit:10;stroke-width:1.224;}</style>
</defs>
<circle class="cls-1" cx="12" cy="21.52" r="0.95"/>
<path class="cls-1" d="M7.23,11h9.55a0,0,0,0,1,0,0v5.73A4.77,4.77,0,0,1,12,21.52h0a4.77,4.77,0,0,1-4.77-4.77V11a0,0,0,0,1,0,0Z"/>
<path class="cls-1" d="M16.77,11h1.91a1.91,1.91,0,0,1,1.91,1.91v1.91a0,0,0,0,1,0,0H18.68a1.91,1.91,0,0,1-1.91-1.91V11A0,0,0,0,1,16.77,11Z"/>
<path class="cls-1" d="M3.41,11H5.32a1.91,1.91,0,0,1,1.91,1.91v1.91a0,0,0,0,1,0,0H5.32a1.91,1.91,0,0,1-1.91-1.91V11A0,0,0,0,1,3.41,11Z" transform="translate(18.25 7.61) rotate(90)"/>
<path class="cls-1" d="M9.14,11V9.11A1.92,1.92,0,0,0,7.23,7.2h-1A4.77,4.77,0,0,1,1.5,2.43V.52"/>
<line class="cls-1" x1="6.27" y1="3.39" x2="6.27" y2="7.2"/>
<path class="cls-1" d="M14.86,11V9.11A1.92,1.92,0,0,1,16.77,7.2h1A4.77,4.77,0,0,0,22.5,2.43V.52"/>
<line class="cls-1" x1="17.73" y1="3.39" x2="17.73" y2="7.2"/>
</g>
</svg>